<?xml version="1.0" encoding="UTF-8"?>
<svg xmlns="http://www.w3.org/2000/svg" xmlns:xlink="http://www.w3.org/1999/xlink" width="32px" height="32px" viewBox="0 0 32 32" version="1.1">
<g id="surface1">
<path style=" stroke:none;fill-rule:nonzero;fill:rgb(5.490196%,55.686275%,95.686275%);fill-opacity:1;" d="M 0 0 C 10.558594 0 21.121094 0 32 0 C 32 10.558594 32 21.121094 32 32 C 21.441406 32 10.878906 32 0 32 C 0 21.441406 0 10.878906 0 0 Z M 0 0 "/>
<path style=" stroke:none;fill-rule:nonzero;fill:rgb(99.607843%,99.607843%,99.607843%);fill-opacity:1;" d="M 15.859375 8.207031 C 15.925781 8.207031 15.925781 8.207031 15.992188 8.207031 C 16.65625 8.210938 17.300781 8.234375 17.957031 8.355469 C 17.992188 8.363281 18.027344 8.367188 18.0625 8.375 C 18.621094 8.46875 19.128906 8.660156 19.644531 8.890625 C 19.675781 8.902344 19.707031 8.917969 19.742188 8.929688 C 20.480469 9.261719 21.121094 9.738281 21.6875 10.3125 C 21.722656 10.34375 21.722656 10.34375 21.753906 10.375 C 23.015625 11.644531 23.523438 13.378906 23.523438 15.128906 C 23.523438 15.214844 23.523438 15.300781 23.519531 15.382812 C 23.519531 15.476562 23.519531 15.566406 23.519531 15.65625 C 23.519531 15.902344 23.519531 16.148438 23.519531 16.390625 C 23.519531 16.648438 23.519531 16.90625 23.519531 17.164062 C 23.519531 17.648438 23.519531 18.132812 23.515625 18.621094 C 23.515625 19.277344 23.515625 19.933594 23.515625 20.589844 C 23.515625 21.621094 23.511719 22.65625 23.511719 23.6875 C 22 23.6875 20.488281 23.6875 18.933594 23.6875 C 18.933594 23.042969 18.933594 22.394531 18.929688 21.730469 C 18.929688 21.320312 18.929688 20.910156 18.929688 20.5 C 18.925781 19.851562 18.925781 19.199219 18.925781 18.550781 C 18.925781 18.074219 18.921875 17.601562 18.921875 17.128906 C 18.921875 16.878906 18.921875 16.628906 18.921875 16.375 C 18.921875 16.140625 18.921875 15.902344 18.917969 15.667969 C 18.917969 15.582031 18.917969 15.496094 18.917969 15.410156 C 18.921875 14.480469 18.703125 13.691406 18.039062 13.011719 C 17.710938 12.695312 17.359375 12.507812 16.933594 12.355469 C 16.898438 12.339844 16.859375 12.328125 16.820312 12.3125 C 16.097656 12.066406 15.261719 12.207031 14.589844 12.535156 C 13.960938 12.898438 13.492188 13.449219 13.246094 14.132812 C 13.234375 14.164062 13.222656 14.191406 13.210938 14.222656 C 13.074219 14.644531 13.089844 15.070312 13.09375 15.511719 C 13.089844 15.597656 13.089844 15.6875 13.089844 15.777344 C 13.089844 16.019531 13.089844 16.261719 13.089844 16.503906 C 13.089844 16.753906 13.085938 17.007812 13.085938 17.261719 C 13.085938 17.738281 13.082031 18.21875 13.082031 18.695312 C 13.082031 19.34375 13.078125 19.988281 13.074219 20.636719 C 13.070312 21.652344 13.070312 22.671875 13.066406 23.6875 C 11.554688 23.6875 10.046875 23.6875 8.488281 23.6875 C 8.484375 21.382812 8.484375 21.382812 8.480469 20.414062 C 8.480469 19.746094 8.480469 19.078125 8.480469 18.410156 C 8.476562 17.921875 8.476562 17.4375 8.476562 16.949219 C 8.476562 16.691406 8.476562 16.433594 8.476562 16.179688 C 8.472656 15.933594 8.472656 15.691406 8.472656 15.449219 C 8.472656 15.359375 8.472656 15.273438 8.472656 15.183594 C 8.460938 13.261719 9.097656 11.605469 10.445312 10.222656 C 11.488281 9.171875 12.878906 8.59375 14.3125 8.3125 C 14.351562 8.300781 14.394531 8.292969 14.4375 8.285156 C 14.910156 8.199219 15.382812 8.207031 15.859375 8.207031 Z M 15.859375 8.207031 "/>
</g>
</svg>
