<?xml version="1.0" encoding="UTF-8"?>
<svg xmlns="http://www.w3.org/2000/svg" xmlns:xlink="http://www.w3.org/1999/xlink" width="36px" height="36px" viewBox="0 0 36 36" version="1.1">
<g id="surface1">
<path style=" stroke:none;fill-rule:nonzero;fill:rgb(5.490196%,55.686275%,95.686275%);fill-opacity:1;" d="M 0 0 C 11.878906 0 23.761719 0 36 0 C 36 11.878906 36 23.761719 36 36 C 24.121094 36 12.238281 36 0 36 C 0 24.121094 0 12.238281 0 0 Z M 0 0 "/>
<path style=" stroke:none;fill-rule:nonzero;fill:rgb(99.607843%,99.607843%,99.607843%);fill-opacity:1;" d="M 17.925781 9.183594 C 17.972656 9.183594 18.019531 9.183594 18.066406 9.183594 C 18.957031 9.1875 19.804688 9.289062 20.671875 9.492188 C 20.71875 9.503906 20.769531 9.511719 20.816406 9.523438 C 22.203125 9.832031 23.390625 10.628906 24.398438 11.601562 C 24.445312 11.640625 24.488281 11.683594 24.535156 11.722656 C 25.570312 12.667969 26.085938 14.066406 26.367188 15.398438 C 26.378906 15.453125 26.390625 15.503906 26.40625 15.5625 C 26.441406 15.777344 26.445312 15.984375 26.445312 16.207031 C 26.445312 16.34375 26.445312 16.34375 26.445312 16.484375 C 26.445312 16.585938 26.445312 16.6875 26.445312 16.789062 C 26.445312 16.898438 26.445312 17.003906 26.445312 17.113281 C 26.445312 17.402344 26.445312 17.695312 26.445312 17.988281 C 26.445312 18.289062 26.445312 18.59375 26.445312 18.898438 C 26.445312 19.476562 26.441406 20.054688 26.441406 20.628906 C 26.441406 21.410156 26.441406 22.1875 26.441406 22.964844 C 26.441406 24.195312 26.4375 25.421875 26.4375 26.648438 C 24.742188 26.648438 23.050781 26.648438 21.304688 26.648438 C 21.300781 25.558594 21.300781 25.558594 21.300781 24.449219 C 21.296875 23.988281 21.296875 23.53125 21.292969 23.070312 C 21.289062 22.339844 21.285156 21.609375 21.285156 20.878906 C 21.285156 20.347656 21.28125 19.8125 21.28125 19.28125 C 21.277344 19 21.277344 18.71875 21.277344 18.4375 C 21.277344 18.171875 21.277344 17.90625 21.273438 17.640625 C 21.273438 17.5 21.273438 17.355469 21.273438 17.214844 C 21.261719 16.210938 21.003906 15.417969 20.316406 14.679688 C 19.941406 14.320312 19.542969 14.101562 19.054688 13.921875 C 19.007812 13.90625 18.960938 13.886719 18.914062 13.871094 C 18.132812 13.628906 17.179688 13.726562 16.457031 14.097656 C 15.597656 14.621094 15.113281 15.238281 14.824219 16.195312 C 14.726562 16.628906 14.726562 17.050781 14.726562 17.492188 C 14.726562 17.59375 14.726562 17.695312 14.726562 17.792969 C 14.722656 18.066406 14.722656 18.335938 14.722656 18.605469 C 14.722656 18.886719 14.722656 19.171875 14.71875 19.453125 C 14.714844 19.988281 14.714844 20.523438 14.714844 21.058594 C 14.710938 21.785156 14.710938 22.507812 14.707031 23.230469 C 14.699219 24.371094 14.699219 25.507812 14.695312 26.648438 C 13 26.648438 11.308594 26.648438 9.5625 26.648438 C 9.554688 23.953125 9.554688 23.953125 9.550781 22.824219 C 9.550781 22.042969 9.550781 21.261719 9.546875 20.480469 C 9.542969 19.910156 9.542969 19.34375 9.542969 18.773438 C 9.542969 18.472656 9.542969 18.171875 9.539062 17.871094 C 9.539062 17.589844 9.539062 17.304688 9.539062 17.019531 C 9.539062 16.917969 9.539062 16.8125 9.539062 16.710938 C 9.523438 14.917969 10.15625 13.304688 11.320312 11.953125 C 11.359375 11.90625 11.394531 11.859375 11.433594 11.808594 C 12.371094 10.648438 13.855469 9.90625 15.265625 9.503906 C 15.3125 9.492188 15.363281 9.476562 15.410156 9.464844 C 16.238281 9.242188 17.074219 9.183594 17.925781 9.183594 Z M 17.925781 9.183594 "/>
</g>
</svg>
